<?xml version="1.0" encoding="UTF-8"?>
<svg version="1.1" xmlns="http://www.w3.org/2000/svg" width="311" height="162">
<path d="M0 0 C102.63 0 205.26 0 311 0 C311 53.46 311 106.92 311 162 C208.37 162 105.74 162 0 162 C0 108.54 0 55.08 0 0 Z " fill="#FEFEFE" transform="translate(0,0)"/>
<path d="M0 0 C4.76625379 1.9362906 6.43013144 6.2735999 8.57421875 10.66796875 C8.90291458 11.32960526 9.23161041 11.99124176 9.57026672 12.67292786 C10.61502819 14.77919421 11.65135074 16.88948582 12.6875 19 C13.39593108 20.4319145 14.10490932 21.86355843 14.81445312 23.29492188 C16.54932501 26.79767753 18.27664207 30.30406609 20 33.8125 C16.55549263 36.10883824 14.06187717 36.35266485 10 36.8125 C9.45730469 35.71550781 8.91460937 34.61851563 8.35546875 33.48828125 C7.6329203 32.03380061 6.91025804 30.5793765 6.1875 29.125 C5.83107422 28.40376953 5.47464844 27.68253906 5.10742188 26.93945312 C2.31271986 21.22710219 2.31271986 21.22710219 -1 15.8125 C-1.66 15.8125 -2.32 15.8125 -3 15.8125 C-3.36762451 16.59488037 -3.73524902 17.37726074 -4.11401367 18.18334961 C-5.48798792 21.0847774 -6.87807073 23.97773252 -8.27954102 26.8659668 C-8.8824679 28.11705224 -9.47889057 29.37129412 -10.06860352 30.62866211 C-10.91783909 32.43641251 -11.79260246 34.23210103 -12.66796875 36.02734375 C-13.18641357 37.11136475 -13.7048584 38.19538574 -14.23901367 39.31225586 C-16 41.8125 -16 41.8125 -18.70825195 42.67407227 C-19.46452881 42.71975342 -20.22080566 42.76543457 -21 42.8125 C-20.61900146 43.5130249 -20.23800293 44.2135498 -19.84545898 44.93530273 C-18.70432615 48.81871319 -19.67011702 50.2733833 -21.47265625 53.84765625 C-22.04306641 54.98654297 -22.61347656 56.12542969 -23.20117188 57.29882812 C-23.50724365 57.88607666 -23.81331543 58.4733252 -24.12866211 59.07836914 C-25.05602574 60.86254404 -25.95055559 62.66044937 -26.84179688 64.46289062 C-30.02453317 70.71153308 -32.5009524 75.5629762 -39 78.8125 C-50.00936506 80.03576278 -60.99439623 77.11324504 -69.9375 70.5703125 C-78.52746413 63.24932035 -83.68483691 55.75073563 -84.875 44.4375 C-85.42177693 32.38036773 -82.63252596 22.74815338 -74.95703125 13.296875 C-68.90091685 6.82272793 -60.88964567 1.04611115 -51.73779297 0.68310547 C-49.75996826 0.68141357 -49.75996826 0.68141357 -47.7421875 0.6796875 C-47.03853058 0.67873077 -46.33487366 0.67777405 -45.6098938 0.67678833 C-44.12550771 0.67610875 -42.64111863 0.67794755 -41.15673828 0.68212891 C-38.87656042 0.68749633 -36.59657811 0.68216829 -34.31640625 0.67578125 C-32.87499956 0.67644176 -31.433593 0.67772235 -29.9921875 0.6796875 C-28.67589355 0.68081543 -27.35959961 0.68194336 -26.00341797 0.68310547 C-23 0.8125 -23 0.8125 -22 1.8125 C-21.875 4.8125 -21.875 4.8125 -22 7.8125 C-23.81391213 9.62641213 -26.64840251 8.96442464 -29.08984375 8.98828125 C-30.97993164 9.02405273 -30.97993164 9.02405273 -32.90820312 9.06054688 C-35.55958466 9.10664384 -38.20942716 9.13449672 -40.86132812 9.15429688 C-51.61665903 9.38870094 -60.29597421 11.15284843 -68.23828125 18.7890625 C-74.4787003 25.95655046 -75.77395614 32.78681718 -75.4140625 42.19140625 C-74.40422728 51.02270107 -70.73053109 57.97505861 -64 63.8125 C-57.53406978 68.49119247 -51.66177859 69.35635486 -43.78515625 69.28125 C-41.06580678 69.01757812 -41.06580678 69.01757812 -39.34375 67.71484375 C-37.37627939 64.92950018 -35.91114549 61.93843486 -34.4375 58.875 C-33.72545998 57.42438119 -33.0132107 55.97386509 -32.30078125 54.5234375 C-31.92646973 53.75612305 -31.5521582 52.98880859 -31.16650391 52.19824219 C-25.82109576 41.26577497 -20.35393494 30.39464635 -14.6875 19.625 C-14.09316162 18.495177 -14.09316162 18.495177 -13.48681641 17.3425293 C-12.33303964 15.16120796 -11.16679837 12.98687788 -10 10.8125 C-9.35732178 9.58539307 -9.35732178 9.58539307 -8.70166016 8.33349609 C-8.05463135 7.12234131 -8.05463135 7.12234131 -7.39453125 5.88671875 C-6.81409058 4.78783325 -6.81409058 4.78783325 -6.22192383 3.66674805 C-4.57334251 1.16505472 -3.11235932 -0.29178369 0 0 Z " fill="#195988" transform="translate(168,30.1875)"/>
<path d="M0 0 C0.66 0.33 1.32 0.66 2 1 C-0.97295052 2.61588178 -3.95440095 4.2154425 -6.9375 5.8125 C-7.76830078 6.26431641 -8.59910156 6.71613281 -9.45507812 7.18164062 C-14.8374508 10.05084318 -20.14588957 12.28226329 -26 14 C-25.5153125 14.95890137 -25.030625 15.91780273 -24.53125 16.90576172 C-22.73815327 20.45582039 -20.95031026 24.00850267 -19.1640625 27.56201172 C-18.38945838 29.1011475 -17.61342138 30.639563 -16.8359375 32.17724609 C-15.72020167 34.38452451 -14.6096039 36.59432154 -13.5 38.8046875 C-13.15001953 39.49432587 -12.80003906 40.18396423 -12.43945312 40.89450073 C-10 45.77225659 -10 45.77225659 -10 48 C-13.02437339 49.5121867 -15.66241534 49.17263369 -19 49 C-21.4375 48 -21.4375 48 -23 47 C-22.505 48.98 -22.505 48.98 -22 51 C-22.66 51 -23.32 51 -24 51 C-29 41 -34 31 -39 21 C-40.98 21.33 -42.96 21.66 -45 22 C-44.6390625 22.62648438 -44.278125 23.25296875 -43.90625 23.8984375 C-43.4421875 24.71570313 -42.978125 25.53296875 -42.5 26.375 C-42.0359375 27.18710938 -41.571875 27.99921875 -41.09375 28.8359375 C-40 31 -40 31 -40 33 C-43 35 -43 35 -44.91796875 35.05859375 C-48.26139382 33.35865343 -49.58658644 30.24613215 -51.3125 27.0625 C-51.68439453 26.41603516 -52.05628906 25.76957031 -52.43945312 25.10351562 C-53.36640453 23.44121729 -54.19170193 21.72311604 -55 20 C-54 18 -54 18 -52.12768555 17.2890625 C-51.3056665 17.06992188 -50.48364746 16.85078125 -49.63671875 16.625 C-48.69973145 16.3667041 -47.76274414 16.1084082 -46.79736328 15.84228516 C-45.7711084 15.56433105 -44.74485352 15.28637695 -43.6875 15 C-33.85203522 12.24474421 -24.2269331 9.09090378 -14.625 5.625 C-12.78941528 4.96371094 -12.78941528 4.96371094 -10.91674805 4.2890625 C-5.37106914 2.3522119 -5.37106914 2.3522119 0 0 Z " fill="#55B94C" transform="translate(219,61)"/>
<path d="M0 0 C3.61901084 1.4222312 4.76834097 2.8419286 6.359375 6.3515625 C6.75253906 7.20234375 7.14570313 8.053125 7.55078125 8.9296875 C7.94652344 9.81914063 8.34226563 10.70859375 8.75 11.625 C9.16121094 12.5221875 9.57242188 13.419375 9.99609375 14.34375 C11.00881598 16.55760791 12.00950063 18.77613234 13 21 C21.76190318 19.217918 30.33201336 17.15326106 38.91796875 14.671875 C42 14 42 14 45 15 C32.95471096 20.28751232 20.90854605 25.29248409 8.3125 29.125 C6.87185181 29.56694702 6.87185181 29.56694702 5.40209961 30.01782227 C1.10568074 31.28247068 -2.49062574 32.15059505 -7 32 C-6.71125 32.53109375 -6.4225 33.0621875 -6.125 33.609375 C-5.568125 34.66898438 -5.568125 34.66898438 -5 35.75 C-4.62875 36.44609375 -4.2575 37.1421875 -3.875 37.859375 C-3 40 -3 40 -3 44 C-4.98 44.66 -6.96 45.32 -9 46 C-18 31.26213592 -18 31.26213592 -18 28 C-17.40598389 27.95359375 -16.81196777 27.9071875 -16.19995117 27.859375 C-12.8741634 26.56021032 -12.32126753 24.41742322 -10.80078125 21.25 C-9.94709961 19.50203125 -9.94709961 19.50203125 -9.07617188 17.71875 C-8.48777799 16.47940547 -7.89989339 15.23981903 -7.3125 14 C-6.71423104 12.75976918 -6.11463652 11.52017685 -5.51367188 10.28125 C-4.41638124 8.01910466 -3.32567012 5.75374879 -2.2434082 3.484375 C-1 1 -1 1 0 0 Z " fill="#E0792C" transform="translate(165,45)"/>
<path d="M0 0 C1.32233859 2.18322143 2.46463037 4.30134117 3.57421875 6.58984375 C3.90291458 7.2495668 4.23161041 7.90928986 4.57026672 8.58900452 C5.26322301 9.98466136 5.95135302 11.38272333 6.63500977 12.78295898 C7.68406405 14.93046631 8.74786139 17.07014194 9.81445312 19.20898438 C10.48525308 20.56467004 11.15520402 21.92077621 11.82421875 23.27734375 C12.14291428 23.9200975 12.4616098 24.56285126 12.78996277 25.2250824 C15 29.76673054 15 29.76673054 15 32 C11.95016004 33.52491998 9.3576631 33.23562548 6 33 C2.82689775 30.65506069 1.52159876 27.29802511 -0.13671875 23.80078125 C-0.42102249 23.20573288 -0.70532623 22.61068451 -0.99824524 21.99760437 C-1.90065574 20.10535211 -2.79416977 18.2090533 -3.6875 16.3125 C-4.29954697 15.02511318 -4.91217089 13.73800048 -5.52539062 12.45117188 C-7.02362309 9.30392888 -8.51390826 6.15299711 -10 3 C-6.84439813 -0.15560187 -4.30999015 -1.43666338 0 0 Z " fill="#185988" transform="translate(194,77)"/>
<path d="M0 0 C3.58390738 1.41693755 4.75975694 2.80986167 6.359375 6.28125 C6.75253906 7.12300781 7.14570313 7.96476562 7.55078125 8.83203125 C7.94652344 9.71246094 8.34226563 10.59289063 8.75 11.5 C9.16121094 12.38042969 9.57242188 13.26085938 9.99609375 14.16796875 C13 20.68474875 13 20.68474875 13 23 C12.01 23 11.02 23 10 23 C7.03 17.06 4.06 11.12 1 5 C3.62858582 10.50666337 3.62858582 10.50666337 6.265625 16.00927734 C6.75289062 17.03722412 6.75289062 17.03722412 7.25 18.0859375 C7.58515625 18.7876709 7.9203125 19.4894043 8.265625 20.21240234 C9 22 9 22 9 24 C6.08397391 24.50400451 3.16727908 25.00334666 0.25 25.5 C-0.575 25.64308594 -1.4 25.78617188 -2.25 25.93359375 C-3.04921875 26.06894531 -3.8484375 26.20429687 -4.671875 26.34375 C-5.4050293 26.46943359 -6.13818359 26.59511719 -6.89355469 26.72460938 C-9 27 -9 27 -13 27 C-11.32246669 21.21969949 -8.64724599 16.03416995 -5.9375 10.6875 C-5.47794922 9.76904297 -5.01839844 8.85058594 -4.54492188 7.90429688 C-1.14055525 1.14055525 -1.14055525 1.14055525 0 0 Z " fill="#F6F8F9" transform="translate(165,45)"/>
<path d="M0 0 C9.19869174 -0.49059689 9.19869174 -0.49059689 13.0625 1.875 C15.36568494 4.40107381 15.9346116 5.41150441 16.3125 8.8125 C15.92835642 12.7307645 14.70743683 14.21293267 12 17 C9.47524538 18.26237731 7.68799534 18.09856404 4.875 18.0625 C3.26625 18.041875 1.6575 18.02125 0 18 C0 12.06 0 6.12 0 0 Z " fill="#0E5383" transform="translate(140,115)"/>
<path d="M0 0 C1.32 0 2.64 0 4 0 C5.17374173 2.43431639 6.33915763 4.87204182 7.5 7.3125 C7.83386719 8.00279297 8.16773438 8.69308594 8.51171875 9.40429688 C11 14.66015625 11 14.66015625 11 18 C9.68 17.67 8.36 17.34 7 17 C7 16.34 7 15.68 7 15 C3.37 15 -0.26 15 -4 15 C-4 15.99 -4 16.98 -4 18 C-5.32 18 -6.64 18 -8 18 C-6.65150163 13.64029169 -4.95092154 9.68658562 -2.875 5.625 C-2.33617187 4.56539063 -1.79734375 3.50578125 -1.2421875 2.4140625 C-0.83226562 1.61742188 -0.42234375 0.82078125 0 0 Z " fill="#105584" transform="translate(190,115)"/>
<path d="M0 0 C4.5532212 1.1383053 5.08509512 1.92387988 7.75 5.5625 C8.36359375 6.38878906 8.9771875 7.21507813 9.609375 8.06640625 C10.06828125 8.70449219 10.5271875 9.34257813 11 10 C11.33 6.7 11.66 3.4 12 0 C12.99 0 13.98 0 15 0 C15 5.94 15 11.88 15 18 C9.59936566 15.29968283 7.58713322 11.82883318 4 7 C3.67 10.63 3.34 14.26 3 18 C2.01 18 1.02 18 0 18 C0 12.06 0 6.12 0 0 Z " fill="#175987" transform="translate(112,115)"/>
<path d="M0 0 C0.99 0 1.98 0 3 0 C7.29 8.91 11.58 17.82 16 27 C15.34 27.33 14.68 27.66 14 28 C14.33 29.32 14.66 30.64 15 32 C14.34 32 13.68 32 13 32 C12.64172119 31.27820557 12.28344238 30.55641113 11.91430664 29.81274414 C10.29910544 26.56163067 8.6808454 23.3120494 7.0625 20.0625 C6.21655273 18.35803711 6.21655273 18.35803711 5.35351562 16.61914062 C4.81533203 15.53955078 4.27714844 14.45996094 3.72265625 13.34765625 C3.22515869 12.34742432 2.72766113 11.34719238 2.21508789 10.31665039 C1.1988143 8.09956217 1.1988143 8.09956217 0 7 C-0.04092937 4.66702567 -0.04241723 2.33294775 0 0 Z " fill="#8BA8BE" transform="translate(182,80)"/>
<path d="M0 0 C6 0 6 0 9 2 C9.3984375 3.875 9.3984375 3.875 9.375 6 C9.38273438 6.70125 9.39046875 7.4025 9.3984375 8.125 C9 10 9 10 6 12 C4.02 12 2.04 12 0 12 C0 8.04 0 4.08 0 0 Z " fill="#F5F8F9" transform="translate(143,118)"/>
<path d="M0 0 C0.66 0.33 1.32 0.66 2 1 C-1.01843094 2.60871674 -4.04016561 4.21113049 -7.0625 5.8125 C-7.91005859 6.26431641 -8.75761719 6.71613281 -9.63085938 7.18164062 C-22.52104243 14 -22.52104243 14 -27 14 C-26.73461914 12.11352539 -26.73461914 12.11352539 -26 10 C-24.36108398 8.95092773 -24.36108398 8.95092773 -22.24609375 8.18359375 C-21.47330078 7.89419922 -20.70050781 7.60480469 -19.90429688 7.30664062 C-19.09025391 7.01982422 -18.27621094 6.73300781 -17.4375 6.4375 C-16.65052734 6.14681641 -15.86355469 5.85613281 -15.05273438 5.55664062 C-13.4795446 4.97690787 -11.90318726 4.40569605 -10.32373047 3.84326172 C-8.77221174 3.28022897 -7.22923187 2.69309741 -5.69580078 2.08251953 C-3.81754844 1.33503877 -1.91048766 0.6607543 0 0 Z " fill="#4EB942" transform="translate(219,61)"/>
<path d="M0 0 C3.58390738 1.41693755 4.75975694 2.80986167 6.359375 6.28125 C6.75253906 7.12300781 7.14570313 7.96476562 7.55078125 8.83203125 C7.94652344 9.71246094 8.34226563 10.59289063 8.75 11.5 C9.16121094 12.38042969 9.57242188 13.26085938 9.99609375 14.16796875 C13 20.68474875 13 20.68474875 13 23 C12.01 23 11.02 23 10 23 C9.74307373 22.45996338 9.48614746 21.91992676 9.22143555 21.36352539 C8.05391254 18.92468203 6.87096326 16.49364546 5.6875 14.0625 C5.28337891 13.21236328 4.87925781 12.36222656 4.46289062 11.48632812 C4.06650391 10.67744141 3.67011719 9.86855469 3.26171875 9.03515625 C2.90037842 8.2862915 2.53903809 7.53742676 2.16674805 6.76586914 C1.04410852 4.6718178 1.04410852 4.6718178 -2 4 C-1.34 2.68 -0.68 1.36 0 0 Z " fill="#E4E9EE" transform="translate(165,45)"/>
<path d="M0 0 C2.89932357 2.39509338 3.50168276 4.31245243 4 8 C1.69 8.33 -0.62 8.66 -3 9 C-0.03 9.33 2.94 9.66 6 10 C6 10.33 6 10.66 6 11 C2.37 11 -1.26 11 -5 11 C-5 11.99 -5 12.98 -5 14 C-6.32 14 -7.64 14 -9 14 C-7.6295082 8.39344262 -7.6295082 8.39344262 -4.5 6.4375 C-3.675 5.963125 -2.85 5.48875 -2 5 C-0.65310085 2.42900598 -0.65310085 2.42900598 0 0 Z " fill="#306A91" transform="translate(191,119)"/>
<path d="M0 0 C0.33 0 0.66 0 1 0 C1.34907695 3.75257718 1.27011863 5.56588078 -0.75 8.8125 C-3.84301821 11.81960104 -3.84301821 11.81960104 -7 12 C-9.34114367 11.72686657 -11.67750658 11.40197001 -14 11 C-13.67 9.68 -13.34 8.36 -13 7 C-12.67 7.33 -12.34 7.66 -12 8 C-7.85723125 8.24733137 -7.85723125 8.24733137 -4 7 C-3.34227572 3.97065509 -3.34227572 3.97065509 -3 1 C-2.34 1.33 -1.68 1.66 -1 2 C-0.67 1.34 -0.34 0.68 0 0 Z " fill="#135687" transform="translate(155,121)"/>
<path d="M0 0 C0.99 0 1.98 0 3 0 C3 5.94 3 11.88 3 18 C2.01 18 1.02 18 0 18 C0 12.06 0 6.12 0 0 Z " fill="#10537F" transform="translate(168,115)"/>
<path d="M0 0 C0.99 0 1.98 0 3 0 C3 5.94 3 11.88 3 18 C2.01 18 1.02 18 0 18 C0 12.06 0 6.12 0 0 Z " fill="#064D80" transform="translate(96,115)"/>
<path d="M0 0 C1.32 0 2.64 0 4 0 C4.99 2.31 5.98 4.62 7 7 C6.34 7 5.68 7 5 7 C5 6.34 5 5.68 5 5 C3.05000871 5.19471111 3.05000871 5.19471111 1 6 C0.67 6.66 0.34 7.32 0 8 C-0.33 8.66 -0.66 9.32 -1 10 C-3.0625 10.625 -3.0625 10.625 -5 11 C-4.35731563 9.35293447 -3.71076198 7.70737825 -3.0625 6.0625 C-2.70285156 5.14597656 -2.34320313 4.22945313 -1.97265625 3.28515625 C-1 1 -1 1 0 0 Z " fill="#185A88" transform="translate(190,115)"/>
<path d="M0 0 C-6.6 2.64 -13.2 5.28 -20 8 C-20.33 6.68 -20.66 5.36 -21 4 C-18.06520402 3.13541688 -15.12778481 2.28302813 -12.1875 1.4375 C-11.35412109 1.19064453 -10.52074219 0.94378906 -9.66210938 0.68945312 C-8.85966797 0.46064453 -8.05722656 0.23183594 -7.23046875 -0.00390625 C-6.49207764 -0.21861572 -5.75368652 -0.4333252 -4.99291992 -0.65454102 C-3 -1 -3 -1 0 0 Z " fill="#F08835" transform="translate(210,60)"/>
<path d="M0 0 C0.99 0 1.98 0 3 0 C3 5.94 3 11.88 3 18 C2.01 17.67 1.02 17.34 0 17 C0.66 16.67 1.32 16.34 2 16 C2 14.35 2 12.7 2 11 C1.34 11 0.68 11 0 11 C0 7.37 0 3.74 0 0 Z " fill="#064D79" transform="translate(124,115)"/>
<path d="M0 0 C3 1 3 1 4.38671875 3.50390625 C4.81597656 4.51324219 5.24523437 5.52257812 5.6875 6.5625 C6.12449219 7.57441406 6.56148437 8.58632812 7.01171875 9.62890625 C7.33785156 10.41136719 7.66398438 11.19382812 8 12 C7.01 12.33 6.02 12.66 5 13 C4.15930585 11.39967863 3.32768495 9.79458829 2.5 8.1875 C1.80390625 6.84751953 1.80390625 6.84751953 1.09375 5.48046875 C0 3 0 3 0 0 Z " fill="#E7EEF2" transform="translate(190,96)"/>
<path d="M0 0 C2.89932357 2.39509338 3.50168276 4.31245243 4 8 C2.02 8 0.04 8 -2 8 C-1.125 2.25 -1.125 2.25 0 0 Z " fill="#D9E2E9" transform="translate(191,119)"/>
<path d="M0 0 C-2.0978523 1.20005531 -4.2020249 2.38502983 -6.3125 3.5625 C-6.90740234 3.90474609 -7.50230469 4.24699219 -8.11523438 4.59960938 C-9.70282559 5.47766262 -11.34993931 6.24586268 -13 7 C-13.99 6.67 -14.98 6.34 -16 6 C-14.42840514 2.85681028 -11.77138608 2.53911691 -8.5625 1.3125 C-7.38816406 0.85488281 -6.21382812 0.39726563 -5.00390625 -0.07421875 C-2 -1 -2 -1 0 0 Z " fill="#71C366" transform="translate(221,62)"/>
<path d="M0 0 C0.33 0 0.66 0 1 0 C1.25 5.625 1.25 5.625 -1 9 C-1.66 9 -2.32 9 -3 9 C-3 6.36 -3 3.72 -3 1 C-2.01 1.495 -2.01 1.495 -1 2 C-0.67 1.34 -0.34 0.68 0 0 Z " fill="#396C93" transform="translate(155,121)"/>
<path d="M0 0 C0 0.66 0 1.32 0 2 C-1.98 2.66 -3.96 3.32 -6 4 C-6 3.34 -6 2.68 -6 2 C-6.99 1.67 -7.98 1.34 -9 1 C-3.375 -1.125 -3.375 -1.125 0 0 Z " fill="#5CBC51" transform="translate(206,68)"/>
</svg>
